<svg xmlns="http://www.w3.org/2000/svg" viewBox="0 0 550 375"><defs><style>.cls-1{fill:#4d4d4d;}.cls-2{fill:#b3b3b3;}.cls-3,.cls-5{fill:#1a1a1a;}.cls-11,.cls-4{fill:#fff;}.cls-4{stroke:#fff;stroke-miterlimit:10;stroke-width:2px;}.cls-11,.cls-5{font-size:12px;}.cls-5{font-family:Roboto-Regular, Roboto;}.cls-6{letter-spacing:-0.01em;}.cls-7{letter-spacing:-0.06em;}.cls-8{letter-spacing:-0.01em;}.cls-9{letter-spacing:-0.01em;}.cls-10{letter-spacing:-0.02em;}.cls-11{font-family:Lato-Semibold, Lato;font-weight:600;}.cls-12{letter-spacing:0em;}.cls-13{letter-spacing:-0.02em;}.cls-14{letter-spacing:-0.01em;}.cls-15{letter-spacing:0em;}.cls-16{letter-spacing:-0.01em;}.cls-17{letter-spacing:-0.01em;}.cls-18{letter-spacing:-0.02em;}</style></defs><g id="base_map"><polygon class="cls-1" points="550 0 550 375 398.89 375 414 340.33 397.33 300.67 372.33 337.33 341.66 349.67 335.55 375 255.86 375 302 329.67 291.73 284.43 279 228.33 287.04 210.31 295.66 191 308.4 178.35 394 93.33 419.55 39.33 419.55 22.89 341.77 40.44 330.77 26.66 309.49 0 328.66 0 331.11 13.33 339.11 16 378.89 0 550 0"/><polygon class="cls-2" points="331.22 13.23 328.81 0.13 378.25 0.13 339.11 15.87 331.22 13.23"/><path class="cls-3" d="M377.6.25,339.11,15.73l-7.78-2.59L329,.25H377.6M378.89,0H328.66l2.45,13.33,8,2.67L378.89,0Z"/><polygon class="cls-2" points="335.71 374.88 341.77 349.76 372.38 337.45 397.31 300.93 413.89 340.38 398.81 374.88 335.71 374.88"/><path class="cls-3" d="M397.28,301.19l16.45,39.14-15,34.42H335.87l6-24.9,30.55-12.29.07,0,0-.06,24.74-36.28m.05-.52-25,36.66-30.67,12.34L335.55,375h63.34L414,340.33l-16.67-39.66Z"/><polygon class="cls-2" points="210.95 374.88 209.9 355.25 191.06 346.39 180.79 346.38 180.79 341.11 178.82 334.3 211.3 323.03 218.19 329.81 226.91 327.49 228.88 337.85 225.19 344.68 235.17 358.28 242.77 346.4 243.63 330.28 228.42 315.24 226.3 300.55 232.88 294.13 260.88 296.35 291.64 284.6 301.87 329.63 255.81 374.88 210.95 374.88"/><path class="cls-3" d="M291.55,284.77l10.18,44.82-46,45.16H211.07l-1-19.43v-.15l-.13-.07-18.77-8.83-.05,0H180.91V341L179,334.38l32.3-11.2,6.78,6.67.1.1.14,0,8.52-2.27,1.93,10.15-3.63,6.76-.07.14.09.13L235,358.21l.22.29.19-.31,7.5-11.73,0,0v-.07l.84-16v-.11l-.08-.08-15.11-14.94-2.14-14.62,6.5-6.33,27.94,2.21h.06l.05,0,30.57-11.68m.18-.34-30.84,11.79L232.83,294l-6.67,6.5,2.17,14.83,15.17,15-.84,16-7.5,11.73-9.83-13.39,3.67-6.84-2-10.5-8.78,2.34-6.89-6.78-32.67,11.33,2,6.89v5.39H191l18.77,8.83L210.83,375h45L302,329.67l-10.27-45.24Z"/><polygon class="cls-2" points="0.13 374.88 0.13 227.91 21.69 227.91 32.36 253.69 53.87 252.56 56.76 240.81 81.66 243.67 87.22 290.37 107.65 286.59 107.65 310.99 84.54 310.99 84.54 348.22 99.73 365.7 110.92 363.45 138.69 370.81 180.54 341.35 180.54 346.63 191 346.63 209.65 355.41 210.7 374.88 0.13 374.88"/><path class="cls-3" d="M21.61,228l10.6,25.63.07.16h.18l21.33-1.12H54l.05-.18,2.83-11.56,24.7,2.85,5.54,46.46,0,.26.26,0,20.14-3.73v24.12H84.41v37.45l.06.07,15.11,17.34.1.11.14,0,11.07-2.22,27.71,7.32.11,0,.1-.07,41.6-29.28v5.16H191l18.58,8.74,1,19.26H.25V228H21.61m.16-.25H0V375H210.83l-1.06-19.67L191,346.5H180.66v-5.39l-42,29.56-27.77-7.34-11.12,2.23L84.66,348.22V311.11h23.11V286.44l-20.44,3.78-5.56-46.66-25.11-2.89-2.89,11.77-21.33,1.12L21.77,227.78Z"/><polygon class="cls-2" points="165.11 315.65 144.53 294.13 107.8 286.32 87.44 290.07 81.89 243.45 56.57 240.53 53.67 252.32 32.53 253.43 21.86 227.66 0.13 227.66 0.13 217.39 17.46 203.62 17.46 186.06 33.2 172.31 45.67 124.47 45.68 110.5 57.14 100.58 89.29 113.01 145.8 101.68 185.45 119.2 191.19 136.96 175.92 150.58 171.21 176.65 163.19 187.48 184.06 253.47 163.22 258.12 158.31 296.28 173.88 306.29 173.88 315.65 165.11 315.65"/><path class="cls-3" d="M57.16,100.73l32.08,12.39.07,0h.07l56.36-11.32,39.61,17.47,5.7,17.63-15.21,13.56-.07.06v.09l-4.66,25.94-8,10.78-.07.1,0,.13,20.81,65.8L163.28,258l-.17,0,0,.18-4.89,38,0,.15.13.09,15.44,9.93v9.17h-8.53l-20.6-21.48-.05-.06h-.07l-36.67-7.78h-.1l-20.18,3.74L82,243.53l0-.2-.2,0-25.11-2.89-.22,0,0,.21L53.57,252.2l-21,1.1L22,227.68l-.06-.15H.25V217.45l17.24-13.69.09-.08V186.11l15.7-13.7.06,0,0-.08L45.8,124.5v-14l11.36-9.82m0-.29-11.56,10v14L33.11,172.22,17.33,186v17.56L0,217.33v10.45H21.77l10.67,25.78,21.33-1.12,2.89-11.77,25.11,2.89,5.56,46.66,20.44-3.78,36.67,7.78,20.67,21.56H174v-9.56l-15.56-10,4.89-38,20.89-4.66L163.33,187.5l8-10.83,4.67-26L191.33,137l-5.78-17.89-39.78-17.55L89.33,112.89,57.11,100.44Z"/><polygon class="cls-2" points="246.67 109.55 238.92 100.36 211.81 68.48 224.97 44.73 225.01 44.66 249.67 0.13 309.43 0.13 330.61 26.66 320.85 38.66 333.56 56.74 384.02 68.55 311.3 115.2 246.67 109.55"/><path class="cls-3" d="M309.37.25l21.08,26.41-9.64,11.85-.12.15.11.15,12.66,18,.05.08.1,0,50.09,11.7-72.43,46.46-64.48-5.64L239,100.28,212,68.47,225,44.85h0l.07-.13L249.74.25h59.63m.12-.25h-59.9L224.9,44.6h0L211.66,68.5l27.16,31.94,7.84,9.23,64.67,5.66,73-46.83L333.66,56.67,321,38.67l9.77-12L309.49,0Z"/><polygon class="cls-2" points="127.62 40.55 121.11 40.55 114.35 47.47 104.39 49.03 94.81 33.82 96.81 29.66 83.33 11.18 87.98 6.36 85.84 0.13 249.38 0.13 224.85 44.44 214.07 37.23 208.03 19.92 192.15 47.21 134.73 50.98 127.62 40.55"/><path class="cls-3" d="M249.17.25l-24.36,44-10.6-7.08-6-17-.18-.51-.27.46-15.72,27-57.28,3.76-7-10.32-.07-.11H121l-.08.08-6.61,6.83-9.86,1.57L95,33.81l1.94-4,.06-.14-.08-.12L83.49,11.19,88,6.5l.11-.11-.05-.14L86,.25H249.17m.42-.25H85.66l2.17,6.33-4.67,4.84,13.5,18.5-2,4.16,9.67,15.34,10.11-1.61,6.67-6.89h6.44l7.11,10.44,57.56-3.78L208,20.22l6,17.11,10.89,7.27h0L249.59,0Z"/><polygon class="cls-2" points="0.13 89.5 10.27 74.07 67.04 54.12 82.63 41.23 82.63 33.95 94.59 33.95 104.2 49.19 101.69 56.21 145.65 94.23 145.65 101.46 89.31 112.77 57.09 100.3 45.43 110.38 45.43 124.44 32.99 172.19 17.21 185.94 17.21 203.5 0.13 217.07 0.13 89.5"/><path class="cls-3" d="M94.53,34.08l9.53,15.12-2.46,6.89-.06.16.13.11,43.85,37.92v7.08L89.36,112.63,57.2,100.21l-.14-.06-.11.1-11.56,10-.09.08v14.08L32.89,172.08,17.17,185.81l-.09.08v17.55L.25,216.81V89.57L10.33,74.21l56.76-20,0,0,0,0,15.5-12.83.09-.07V34.08H94.53m.13-.25H82.5v7.34L67,54,10.16,74,0,89.5V217.33l17.33-13.77V186l15.78-13.78,12.44-47.78v-14l11.56-10,32.22,12.45,56.44-11.33V94.17l-43.94-38,2.5-7L94.66,33.83Z"/><polygon class="cls-2" points="0.11 57.44 0.13 45.13 12.99 45.13 6.46 39.27 6.46 21.67 0.1 12.76 0.13 0.13 85.58 0.13 87.69 6.3 83 11.16 96.52 29.68 94.58 33.7 82.38 33.7 82.38 41.11 66.92 53.9 10.22 73.85 0.11 57.44"/><path class="cls-3" d="M85.48.25l2.07,6L83,11l-.14.15.12.17L96.37,29.7l-1.86,3.88H82.25v7.47L66.88,53.78,10.27,73.7.25,57.43V45.25H13.32l-.49-.44L6.58,39.22V21.59l0-.07L.25,12.75V.25H85.48M85.66,0H0V12.83l6.33,8.84V39.33L12.66,45H0V57.5L10.16,74,67,54,82.5,41.17V33.83H94.66l2-4.16-13.5-18.5,4.67-4.84L85.66,0Z"/><polygon class="cls-2" points="0.13 57.94 10.02 74 0.13 89.08 0.13 57.94"/><path class="cls-3" d="M.25,58.38,9.87,74,.25,88.66V58.38M0,57.5v32L10.16,74,0,57.5Z"/><polygon class="cls-2" points="0.13 44.88 0.13 13.22 6.23 21.74 6.21 39.39 12.34 44.88 0.13 44.88"/><path class="cls-3" d="M.25,13.61l5.83,8.14V39.44l.09.08L12,44.75H.25V13.61M0,12.83V45H12.66L6.33,39.33V21.67L0,12.83Z"/><polygon class="cls-2" points="223.25 173.43 225.47 164.79 220.98 160.46 221.02 158.89 233.47 139.57 222.16 112.05 238.8 100.61 246.57 109.75 311.1 115.44 302.23 127.25 302.21 168.43 308.25 178.33 295.58 190.91 286.99 210.13 223.25 173.43"/><path class="cls-3" d="M238.78,100.77l7.69,9.06.07.08h.1l64.22,5.62-8.73,11.64-.05.07V168.5l0,.06,6,9.75-12.6,12.51,0,0v0L286.93,210l-63.54-36.59,2.19-8.48,0-.14-.1-.1-4.37-4.21V159l12.4-19.26.07-.11-.05-.13-11.25-27.37,16.47-11.32m0-.33L222,112l11.33,27.56-12.44,19.33v1.66l4.44,4.28-2.23,8.66L287,210.31,295.66,191l12.74-12.65-6.07-9.92v-41.1l9-12-64.67-5.66-7.84-9.23Z"/><polygon class="cls-2" points="302.44 168.37 302.46 127.33 311.43 115.41 384.65 68.44 333.69 56.55 321.16 38.67 330.77 26.86 341.73 40.58 419.43 23.05 419.43 39.33 393.89 93.28 308.43 178.15 302.44 168.37"/><path class="cls-3" d="M419.3,23.2V39.27L393.8,93.18,308.45,178l-5.87-9.59v-41l8.93-11.89,73-46.81.5-.32-.58-.13L333.81,56.45,321.32,38.68l9.45-11.62L341.58,40.6l.1.12.15,0L419.3,23.2m.25-.31L341.77,40.44l-11-13.78-9.77,12,12.66,18L384.33,68.5l-73,46.83-9,12v41.1l6.07,9.92,85.6-85,25.55-54V22.89Z"/><polygon class="cls-2" points="232.93 293.88 226.11 272.8 184.33 253.47 163.47 187.52 171.4 176.79 197.74 174.43 195.19 192.99 219.6 187.6 223.18 173.68 286.88 210.36 278.89 228.28 291.59 284.35 260.87 296.09 232.93 293.88"/><path class="cls-3" d="M223.26,173.87l63.46,36.54-8,17.82,0,.07,0,.09,12.68,55.88L260.86,296,233,293.76l-6.78-20.95,0-.1-.1,0-16.23-7.51-25.45-11.77-20.82-65.83,7.86-10.64,26.12-2.34-2.5,18.23-.05.35.35-.08,24.17-5.33.15,0,0-.15,3.51-13.69m-.16-.38-3.6,14-24.17,5.33,2.55-18.54-26.55,2.38-8,10.83,20.89,66.06,25.55,11.82L226,272.89,232.83,294l28.06,2.22,30.84-11.79L279,228.33l8-18L223.1,173.49Z"/><polygon class="cls-2" points="225.48 344.66 229.11 337.89 227.1 327.18 218.26 329.53 211.42 322.8 207.25 317.53 218.34 282.26 210.04 265.64 225.9 272.98 232.69 293.96 226.03 300.45 228.21 315.35 243.38 330.38 242.54 346.32 235.16 357.84 225.48 344.66"/><path class="cls-3" d="M210.32,265.91l15.48,7.16,6.75,20.86L226,300.32l-.09.09,0,.13,2.17,14.83v.08l.06.06,15.09,14.92-.83,15.82-7.27,11.37-9.52-13,3.59-6.7.05-.08,0-.09-2-10.5-.05-.26-.26.07-8.64,2.3-6.77-6.66-4.14-5.22,11.07-35.22,0-.09,0-.09-8.13-16.2m-.55-.53,8.45,16.84-11.11,35.34,4.22,5.33,6.89,6.78,8.78-2.34,2,10.5-3.67,6.84,9.83,13.39,7.5-11.73.84-16-15.17-15-2.17-14.83,6.67-6.5L226,272.89l-16.23-7.51Z"/><polygon class="cls-2" points="110.92 363.21 99.82 365.42 84.76 348.14 84.79 311.24 107.9 311.24 107.9 286.6 144.42 294.34 165.02 315.87 174.13 315.9 174.13 306.15 158.58 296.16 163.45 258.32 184.25 253.68 209.72 265.49 218.11 282.27 206.97 317.58 211.13 322.83 178.51 334.14 180.52 341.06 138.64 370.53 110.92 363.21"/><path class="cls-3" d="M184.2,253.82l25.39,11.75L218,282.24l-11.08,35.25,0,.12.08.11,4,5L178.58,334l-.22.08.06.23,2,6.72L138.61,370.4,111,363.09l-.06,0h-.06l-11,2.21-15-17.16V311.36H108V286.75l36.3,7.7L164.93,316l.08.08h9.24v-9.95l-.11-.07-15.43-9.91,4.85-37.67,20.64-4.61m0-.26-20.89,4.66-4.89,38,15.56,10v9.56h-8.89l-20.67-21.56-36.67-7.78v24.67H84.66v37.11l15.11,17.34,11.12-2.23,27.77,7.34,42-29.56-2-6.89,32.67-11.33-4.22-5.33,11.11-35.34-8.45-16.84-25.55-11.82Z"/><polygon class="cls-2" points="145.9 101.48 145.9 94.11 101.98 56.13 104.43 49.28 114.46 47.68 121.2 40.76 127.49 40.79 134.6 51.24 192.3 47.45 207.97 20.52 213.88 37.37 224.73 44.64 211.51 68.52 238.64 100.42 221.93 111.9 185.57 118.98 145.9 101.48"/><path class="cls-3" d="M208,20.81l5.82,16.6,0,.08.06,0,10.7,7.14-13.12,23.7-.08.15.11.13,27,31.73L221.9,111.76l-36.32,7.09L146,101.4V94.06l-.08-.08L102.13,56.09l2.39-6.7,10-1.58.08,0,.06-.06,6.6-6.81h6.2l7,10.33.08.12h.14l57.56-3.78h.13l.07-.11L208,20.81m.05-.59L192.22,47.33l-57.56,3.78-7.11-10.44h-6.44l-6.67,6.89-10.11,1.61-2.5,7,43.94,38v7.39l39.78,17.55L222,112l16.82-11.56L211.66,68.5l13.23-23.9L214,37.33l-6-17.11Z"/><polygon class="cls-2" points="176.13 150.69 191.48 137.04 185.72 119.21 221.93 112.14 233.19 139.55 220.79 158.82 220.77 160.26 216.2 155.86 199.55 161.24 197.77 174.17 171.49 176.53 176.13 150.69"/><path class="cls-3" d="M221.85,112.28l11.2,27.25-12.37,19.22,0,.07V160l-4.3-4.14-.11-.1-.14,0-16.5,5.33-.15,0,0,.16-1.76,12.76-26,2.33,4.59-25.59,15.27-13.61.12-.11-.05-.16-5.69-17.62,36-7M222,112l-36.45,7.11L191.33,137,176,150.67l-4.67,26,26.55-2.38,1.78-13,16.5-5.33,4.73,4.55v-1.66l12.44-19.33L222,112Z"/><polygon class="cls-1" points="225.33 164.83 223.1 173.49 219.5 187.5 195.33 192.83 197.88 174.29 199.66 161.33 216.16 156 220.89 160.55 225.33 164.83"/></g><g id="marked_area"><circle class="cls-4" cx="230.17" cy="184.46" r="3.04"/></g><g id="text"><text class="cls-5" transform="translate(90.3 198.24)">DRC</text><text class="cls-5" transform="translate(187.45 146.89)">Uganda</text><text class="cls-5" transform="translate(17.85 306.87)">Angola</text><text class="cls-5" transform="translate(112.17 333.38)">Zambia</text><text class="cls-5" transform="translate(208.68 351.42)">M<tspan class="cls-6" x="10.48" y="0">o</tspan><tspan x="17.23" y="0">zambique</tspan></text><text class="cls-5" transform="translate(217.07 319.45)">Malawi</text><text class="cls-5" transform="translate(203.03 240.8)"><tspan class="cls-7">T</tspan><tspan x="6.5" y="0">anzania</tspan></text><text class="cls-5" transform="translate(249.86 140.67)"><tspan class="cls-8">K</tspan><tspan x="7.37" y="0">en</tspan><tspan class="cls-9" x="20.35" y="0">y</tspan><tspan x="25.94" y="0">a</tspan></text><text class="cls-5" transform="translate(266.06 64.86)">Ethiopia</text><text class="cls-5" transform="translate(323.57 117.44)">Somalia</text><text class="cls-5" transform="translate(25.21 80.86)">Cent<tspan class="cls-10" x="24.71" y="0">r</tspan><tspan x="28.54" y="0">al African </tspan><tspan x="16.71" y="14.4">Republic</tspan></text><text class="cls-5" transform="translate(132.51 75.52)">South Sudan</text><text class="cls-11" transform="translate(205.02 203.45)"><tspan class="cls-12">S</tspan><tspan x="6.52" y="0">e</tspan><tspan class="cls-13" x="12.89" y="0">r</tspan><tspan x="17.11" y="0">en</tspan><tspan class="cls-14" x="30.22" y="0">g</tspan><tspan class="cls-15" x="36.41" y="0">e</tspan><tspan x="42.73" y="0">ti </tspan><tspan class="cls-16" x="-10.82" y="14.4">N</tspan><tspan class="cls-17" x="-1.78" y="14.4">a</tspan><tspan x="4.17" y="14.4">tional </tspan><tspan class="cls-18" x="37.25" y="14.4">P</tspan><tspan x="44.39" y="14.4">ark</tspan></text></g></svg>