<svg xmlns="http://www.w3.org/2000/svg" viewBox="0 0 550 375"><defs><style>.cls-1{fill:#b3b3b3;}.cls-2,.cls-5{fill:#1a1a1a;}.cls-3{fill:#4d4d4d;}.cls-12,.cls-4{fill:#fff;}.cls-4{stroke:#fff;stroke-miterlimit:10;stroke-width:10.38px;}.cls-12,.cls-5{font-size:12px;}.cls-5{font-family:Roboto-Regular, Roboto;}.cls-6{letter-spacing:-0.01em;}.cls-7{letter-spacing:0.01em;}.cls-8{letter-spacing:-0.01em;}.cls-9{letter-spacing:-0.01em;}.cls-10{letter-spacing:-0.01em;}.cls-11{letter-spacing:-0.01em;}.cls-12{font-family:Lato-Semibold, Lato;font-weight:600;}.cls-13{letter-spacing:0em;}.cls-14{letter-spacing:-0.02em;}.cls-15{letter-spacing:-0.01em;}.cls-16{letter-spacing:0em;}.cls-17{letter-spacing:-0.01em;}.cls-18{letter-spacing:-0.01em;}.cls-19{letter-spacing:-0.02em;}</style></defs><g id="base_map"><path class="cls-1" d="M.12,374.88v-169l13.13-11.49,19,4L38,238l6-1.88L40,197l16.31-9.31,32,19.61,60.6-37.43-6.75-17.11-21.9,10.73H94.11l-8.72-7.9L174.14,34.83,386.75,155.74v29.15l-6.53,12.83v14h10.87l11.14-24.13,2-21.9,145.69,82.86V374.88ZM362.9,319.09l0,28.88,10.45-15.46,0-29.37Zm-74.66,0-32.47,11.5v17.16l43.71-15.18,17.46-26.8-8.61-8.61Z"/><path class="cls-2" d="M174.18,35,386.62,155.82v29l-6.51,12.84,0,.05v14.09h11.08l.07-.15,11.11-24.06v-.08l1.92-21.66,145.47,82.73V374.75H.25V205.89l13-11.4,18.82,3.94,5.75,39.42,0,.29.28-.09L44,236.24l.2-.06,0-.21-4-38.94,16.17-9.24L88.2,207.32l.13.08.13-.08L148.91,170l.18-.11-.08-.19-6.67-16.89-.1-.25-.24.12-21.73,10.64H94.21l-8.65-7.78L174.18,35m114,284-32.38,11.48-.17.06v17.42l.33-.11,43.55-15.12.08,0,0-.07L317,305.92l.11-.17-.14-.15-8.45-8.45-.19-.18-.17.19-20,21.79m74.56,29.43.46-.68,10.22-15.12,0-.06v-29.8l-.46.7L362.79,319l0,.07v29.29M174.11,34.67,85.22,155.56l8.89,8h26.22l21.78-10.67,6.67,16.89L88.33,207.11l-32-19.61-16.44,9.39,4,39.11-5.78,1.81-5.78-39.59-19.11-4L0,205.78V375H550V248.44l-145.93-83-2,22.05L391,211.56H380.33V197.78l6.54-12.89V155.67l-212.76-121Zm81.78,312.89V330.67l32.44-11.51,20-21.83,8.45,8.45-17.34,26.66-43.55,15.12Zm107.11,0v-28.4l10.22-15.6v28.88L363,347.56Z"/><polygon class="cls-3" points="316.78 305.78 299.44 332.44 255.89 347.56 255.89 330.67 288.33 319.16 308.33 297.33 316.78 305.78"/><polygon class="cls-3" points="373.22 303.56 373.22 332.44 363 347.56 363 319.16 373.22 303.56"/><polygon class="cls-1" points="174.28 34.63 186.27 15.54 170.42 0.13 549.88 0.13 549.88 248.23 174.28 34.63"/><path class="cls-2" d="M549.75.25V248L404.19,165.23,387,155.45,174.46,34.58l11.86-18.89.11-.17-.15-.14L170.73.25h379M550,0H170.11l16,15.56-12,19.11,212.76,121,17.2,9.78,145.93,83V0Z"/><polygon class="cls-3" points="174.11 34.67 85.22 155.56 94.11 163.56 120.33 163.56 142.11 152.89 148.78 169.78 88.33 207.11 56.33 187.5 39.89 196.89 43.89 236 38.11 237.81 32.33 198.22 13.22 194.22 0 205.78 0 0 170.11 0 186.11 15.56 174.11 34.67"/><polygon class="cls-3" points="404.07 165.45 402.11 187.5 391 211.56 380.33 211.56 380.33 197.78 386.87 184.89 386.87 155.67 404.07 165.45"/></g><g id="marked_area"><path class="cls-4" d="M317,94.3l-7.13,42.22-.81,4.76-.82,4.87-.34,2-3.66,21.69h0l-4,23.67-.06.36-.39,2.32-.35,2.12-4.23,25-2.35,14-4.88,5.4-1.24,1.37-2.11,2.35-10.82,12-14,15.58q-3.87,4.28-7.71,8.56c-1-2.63-2.26-5.77-3.76-9.3-.92-2.15-1.93-4.46-3-6.88-4.52-9.85-8.48-16.9-12.18-23.45A280.38,280.38,0,0,0,215.67,215l-1.79-2.51a162,162,0,0,0-11.8-14.61c-5-5.45-9.71-10.67-17.12-16.17a76.17,76.17,0,0,0-17.58-10.32,65.54,65.54,0,0,0-9-2.91l-1.33-3.67-4.7-13,1.84-.09c4.76.6,9.53,1.17,14.29,1.74,19.28,2.3,38.58,4.44,57.85,6.75l.19,0,26.4,3.3q-2.05-7.62-4.13-15.15-1.08-3.94-2.17-7.87c-.44-1.6-.89-3.2-1.33-4.8-.08-.31-.17-.61-.25-.92l-.66-2.37h0c-.27-1-.55-2-.83-3-2.95-10.58-5.91-21.13-8.85-31.78l.3-13.35,38-27.67,1.92,1.64,3,2.57,5,4.29.45.38Z"/><path class="cls-4" d="M253,163.58l-26.4-3.3Q239.77,161.86,253,163.58Z"/></g><g id="text"><text class="cls-5" transform="translate(18.32 95.17)">La<tspan class="cls-6" x="12.98" y="0">k</tspan><tspan x="18.95" y="0">e Vic</tspan><tspan class="cls-6" x="45.11" y="0">t</tspan><tspan x="48.91" y="0">oria</tspan></text><text class="cls-5" transform="translate(87.89 304.67)">Maswa Game Rese<tspan class="cls-7" x="102.54" y="0">r</tspan><tspan class="cls-8" x="106.71" y="0">v</tspan><tspan x="112.45" y="0">e</tspan></text><text class="cls-5" transform="translate(312.6 271.79)">Ngo<tspan class="cls-6" x="22.13" y="0">r</tspan><tspan x="26.07" y="0">ongo</tspan><tspan class="cls-6" x="53.12" y="0">r</tspan><tspan x="57.06" y="0">o </tspan><tspan x="-17.13" y="14.4">Conse</tspan><tspan class="cls-7" x="16.69" y="14.4">r</tspan><tspan class="cls-9" x="20.85" y="14.4">v</tspan><tspan x="26.58" y="14.4">ation A</tspan><tspan class="cls-10" x="64.2" y="14.4">r</tspan><tspan x="68.15" y="14.4">ea</tspan></text><text class="cls-5" transform="translate(491.67 87.92)"><tspan class="cls-11">K</tspan><tspan x="7.37" y="0">en</tspan><tspan class="cls-9" x="20.35" y="0">y</tspan><tspan x="25.94" y="0">a</tspan></text><text class="cls-12" transform="translate(119.41 226.07)"><tspan class="cls-13">S</tspan><tspan x="6.52" y="0">e</tspan><tspan class="cls-14" x="12.89" y="0">r</tspan><tspan x="17.11" y="0">en</tspan><tspan class="cls-15" x="30.22" y="0">g</tspan><tspan class="cls-16" x="36.41" y="0">e</tspan><tspan x="42.73" y="0">ti </tspan><tspan class="cls-17" x="-10.82" y="14.4">N</tspan><tspan class="cls-18" x="-1.78" y="14.4">a</tspan><tspan x="4.17" y="14.4">tional </tspan><tspan class="cls-19" x="37.25" y="14.4">P</tspan><tspan x="44.39" y="14.4">ark</tspan></text></g></svg>