<svg xmlns="http://www.w3.org/2000/svg" viewBox="0 0 550 375"><defs><style>.cls-1{fill:#b3b3b3;}.cls-2,.cls-5{fill:#1a1a1a;}.cls-3{fill:#4d4d4d;}.cls-10,.cls-4{fill:#fff;}.cls-4{stroke:#fff;stroke-miterlimit:10;stroke-width:5.77px;}.cls-10,.cls-5{font-size:12px;}.cls-5{font-family:Roboto-Regular, Roboto;}.cls-6{letter-spacing:-0.01em;}.cls-7{letter-spacing:-0.06em;}.cls-8{letter-spacing:-0.01em;}.cls-9{letter-spacing:-0.01em;}.cls-10{font-family:Lato-Semibold, Lato;font-weight:600;}.cls-11{letter-spacing:0em;}.cls-12{letter-spacing:-0.02em;}.cls-13{letter-spacing:-0.01em;}.cls-14{letter-spacing:0em;}.cls-15{letter-spacing:-0.01em;}.cls-16{letter-spacing:-0.01em;}.cls-17{letter-spacing:-0.02em;}</style></defs><g id="base_map"><path class="cls-1" d="M.12,374.88V100.75H62.67l6.22,13-16,65.58,11.24,31.62,27.55-32.4,8.57,9.07L160,192.46l25.48-15.4-1.7-11.24L172,170.89l-25-3,54-65.14,114.86,64.39-4.08,28.45L317.9,197l4-7.91,2.89-16.82,94,52.7-10.21,24L510,322.27l-13.74,52.61Zm258.8-119.64-15.05,7v8.61l25.51-10.41,8.11-11.79L273,243.15Z"/><path class="cls-2" d="M62.59,100.87l6.15,12.83-16,65.57,0,.07,0,.07,11.17,31.34.15.41.28-.33L91.68,178.7l8.47,9,.06.07h.1L160,192.58h.08l.07-.05,25.33-15.33.14-.08,0-.17-1.66-11,0-.32-.3.13-11.61,5-24.8-2.93,53.78-64.89,114.69,64.29-4.05,28.25,0,.23.23.05,6,1.33.18.05.09-.18,4-7.83,0,0v0l2.85-16.61L418.68,225l-10.13,23.79-.08.19.16.11,101.19,73.23-13.68,52.43H.25V100.87H62.59M258.86,255.12l-15,7-.14.07V271l.34-.14,25.33-10.34.07,0,.05-.06,8-11.66.1-.15-.12-.15-4.33-5.34L273,243l-.19.17-14,12M62.75,100.62H0V375H496.33l13.78-52.78L408.78,248.89l10.22-24L324.74,172l-2.91,17-4,7.83-6-1.33,4.07-28.41h0l-115-64.48L146.67,168,172,171l11.67-5,1.66,11L160,192.33l-59.67-4.83-8.66-9.17-27.5,32.34L53,179.33l16-65.66-6.25-13ZM244,270.67v-8.34l15-7,14-12,4.33,5.34-8,11.66L244,270.67Z"/><polygon class="cls-3" points="277.33 248.67 269.33 260.33 244 270.67 244 262.33 259 255.33 273 243.33 277.33 248.67"/><polygon class="cls-1" points="408.94 248.85 419.16 224.84 324.8 171.93 316.02 167.02 315.96 166.97 201.07 102.56 208.16 94.01 199.15 80.67 208.05 68.66 225.79 72.48 225.79 61.45 247.54 59.63 239.71 46.5 212.39 62.49 196.15 26.35 202.77 18.41 202.79 6.08 214.39 0.11 549.88 0.13 549.88 263.33 524.89 315.62 510.13 322.08 408.94 248.85"/><path class="cls-2" d="M549.75.25v263l-24.94,52.21-14.67,6.45L409.09,248.8,419.23,225l.09-.21-.2-.11-94.26-52.85-8.71-4.88h0l-.13-.07L201.26,102.53l6.93-8.37.12-.14-.1-.16-8.9-13.18L208.1,68.8l17.52,3.77.3.07V61.56l21.43-1.79.4,0-.21-.35-7.66-12.85-.12-.21-.22.12-27.1,15.86L196.29,26.37l6.57-7.88.06-.07V6.15L214.39.25H549.75M550,0H214.33L202.67,6V18.33l-6.67,8,16.33,36.34,27.34-16,7.66,12.85-21.66,1.81v11L208,68.52l-9,12.15L208,94l-7.12,8.6,115,64.48h0l8.84,4.95L419,224.89l-10.22,24,101.33,73.33L525,315.67l25-52.34V0Z"/><polygon class="cls-1" points="0.13 100.5 0.13 0.13 213.81 0.13 202.54 5.92 202.54 18.33 195.95 26.19 150.13 16.53 138.91 27.91 111.99 29.88 75.28 44.88 57.55 89.95 62.55 100.5 0.13 100.5"/><path class="cls-2" d="M213.3.25,202.56,5.78l-.14.07V18.24l-6.52,7.81-45.68-9.62-.13,0-.1.09-11.1,11.27-26.91,2h0l0,0-36.67,15-.1,0,0,.1-17.66,45,0,.1,0,.1,4.91,10.26H.25V.25H213.3m1-.25H0V100.62H62.75L57.67,90,75.33,45,112,30l27-2,11.17-11.33L196,26.33l6.67-8V6l11.66-6Z"/><polygon class="cls-3" points="247.33 59.52 225.67 61.33 225.67 72.33 208 68.52 199 80.67 208 94 200.88 102.6 146.67 168 172 171 183.67 166 185.33 177 160 192.33 100.33 187.5 91.67 178.33 64.17 210.67 53 179.33 69 113.67 62.75 100.62 57.67 90 75.33 45 112 30 139 28 150.17 16.67 196 26.33 212.33 62.67 239.67 46.67 247.33 59.52"/><polygon class="cls-3" points="324.74 172.04 321.83 189 317.83 196.83 311.83 195.5 315.9 167.09 324.74 172.04"/><polygon class="cls-3" points="550 263.33 550 375 496.33 375 510.11 322.22 525 315.67 550 263.33"/></g><g id="marked_area"><path class="cls-4" d="M283,136.25l-4,23.47-.45,2.64-.45,2.71-.19,1.13-2,12.05h0l-2.22,13.15,0,.2-.22,1.29-.2,1.18L270.85,208l-1.31,7.77-2.71,3-.69.77c-.4.43-.79.87-1.18,1.3q-3,3.33-6,6.67l-7.8,8.65-4.29,4.76c-.56-1.46-1.25-3.2-2.08-5.17-.51-1.19-1.08-2.48-1.7-3.82-2.51-5.48-4.71-9.39-6.77-13a156.8,156.8,0,0,0-9.65-15.51c-.32-.45-.65-.92-1-1.39a88.11,88.11,0,0,0-6.55-8.12,62.14,62.14,0,0,0-9.52-9,42.17,42.17,0,0,0-9.77-5.74,37.18,37.18,0,0,0-5-1.61l-.74-2-2.62-7.23,1,0q4,.5,7.95,1c10.72,1.28,21.44,2.47,32.16,3.75h.1l14.67,1.84c-.76-2.83-1.52-5.63-2.29-8.42-.4-1.47-.8-2.92-1.21-4.38-.24-.89-.49-1.78-.74-2.66,0-.18-.09-.35-.14-.51l-.36-1.32h0c-.15-.56-.31-1.12-.46-1.67-1.64-5.88-3.29-11.75-4.92-17.66l.16-7.42,21.1-15.39,1.07.92,1.66,1.42,2.79,2.39.25.21Z"/><path class="cls-4" d="M247.38,174.76l-14.67-1.84Q240.06,173.81,247.38,174.76Z"/></g><g id="text"><text class="cls-5" transform="translate(37.89 21.17)">Uganda</text><text class="cls-5" transform="translate(95.48 95.17)">La<tspan class="cls-6" x="12.98" y="0">k</tspan><tspan x="18.95" y="0">e Vic</tspan><tspan class="cls-6" x="45.11" y="0">t</tspan><tspan x="48.91" y="0">oria</tspan></text><text class="cls-5" transform="translate(184.35 321.89)"><tspan class="cls-7">T</tspan><tspan x="6.5" y="0">anzania</tspan></text><text class="cls-5" transform="translate(401.74 87.92)"><tspan class="cls-8">K</tspan><tspan x="7.37" y="0">en</tspan><tspan class="cls-9" x="20.35" y="0">y</tspan><tspan x="25.94" y="0">a</tspan></text><text class="cls-10" transform="translate(158.75 230.67)"><tspan class="cls-11">S</tspan><tspan x="6.52" y="0">e</tspan><tspan class="cls-12" x="12.89" y="0">r</tspan><tspan x="17.11" y="0">en</tspan><tspan class="cls-13" x="30.22" y="0">g</tspan><tspan class="cls-14" x="36.41" y="0">e</tspan><tspan x="42.73" y="0">ti </tspan><tspan class="cls-15" x="-10.82" y="14.4">N</tspan><tspan class="cls-16" x="-1.78" y="14.4">a</tspan><tspan x="4.17" y="14.4">tional </tspan><tspan class="cls-17" x="37.25" y="14.4">P</tspan><tspan x="44.39" y="14.4">ark</tspan></text></g></svg>