<svg xmlns="http://www.w3.org/2000/svg" viewBox="0 0 550 375"><defs><style>.cls-1{fill:#4d4d4d;}.cls-2{fill:#b3b3b3;}.cls-3,.cls-6{fill:#1a1a1a;}.cls-4{fill:none;stroke:#1a1a1a;stroke-width:0.25px;}.cls-4,.cls-5{stroke-miterlimit:10;}.cls-5{fill:#fff;stroke:#fff;stroke-width:2.56px;}.cls-6{font-size:12px;font-family:Roboto-Regular, Roboto;}.cls-7{letter-spacing:-0.06em;}.cls-8{letter-spacing:-0.01em;}.cls-9{letter-spacing:-0.01em;}</style></defs><g id="base_map"><polygon class="cls-1" points="550 32.55 550 375 359.71 375 347.44 339.56 353.66 302.67 335.44 277.78 349.4 245.27 370.55 196 399.44 176.89 405.22 169.53 451.44 110.67 520.33 62.22 550 32.55"/><polygon class="cls-2" points="389.76 147.93 389.79 56 411.54 27.64 450.17 7.67 493.24 0.12 549.88 0.13 549.88 32.55 520.24 62.13 451.37 110.57 405.23 169.32 389.76 147.93"/><path class="cls-3" d="M549.75.25v32.2L520.19,62,451.3,110.47l0,0,0,0-46,58.59-15.32-21.19V56.08l21.7-28.32,38.58-20,43-7.55h56.53M550,0H493.22L450.11,7.56l-38.67,20L389.66,56v92l15.56,21.53,46.22-58.86,68.89-48.45L550,32.55V0Z"/><polygon class="cls-2" points="319.46 36.77 288.85 13.68 266.2 13.65 260.52 0.13 491.79 0.13 450.09 7.44 411.39 27.45 394.11 28.32 384.8 20.53 362.51 28.32 354.49 41.2 319.46 36.77"/><path class="cls-3" d="M490.35.25,450.07,7.31h0l0,0-38.62,20-17.18.88-9.27-7.71-.11-.09-.13,0L362.47,28.2l-.08,0-.05.08-7.91,12.75-34.89-4.41L288.92,13.58l-.06-.05H266.28l-2.13-5.07L260.71.25H490.35M493.22,0H260.33l3.59,8.56,2.19,5.22h22.66l30.67,23.11,35.11,4.44,8-12.89,22.22-7.77,9.34,7.77,17.33-.88,38.67-20L493.22,0Z"/><polygon class="cls-2" points="305.48 213.95 308.48 203.61 217.47 152.55 220.04 149.13 217.37 143.35 221.32 138.97 236.97 134.97 233.28 128.96 220.16 133.63 212.82 122.33 243.15 81.69 215.16 21.38 251.4 0.11 260.25 0.13 263.81 8.61 260.21 35.98 280.83 67.65 283.59 55.25 277.26 53.21 270.44 41.5 270.68 13.9 288.77 13.9 319.37 36.99 354.62 41.46 362.66 28.51 384.75 20.81 394.03 28.54 411.18 27.7 389.56 55.92 389.54 148 405.07 169.53 399.35 176.81 370.48 195.9 349.35 245.08 305.48 213.95"/><path class="cls-3" d="M260.17.25l3.5,8.34L260.09,36l0,.09.05.08,20.44,31.33.33.49.13-.58,2.67-12,.05-.22-.22-.07-6.13-2-6.81-11.63L270.8,14h17.89l30.6,23.06.06,0h.06l35.11,4.44.16,0,.09-.14,8-12.81,22-7.7L394,28.63l.08.06h.1l16.79-.85-21.46,28,0,.07v92.16l0,.07,15.45,21.37-5.64,7.18-28.85,19.09-.07,0,0,.07-21,49-43.68-31,2.95-10.16.06-.19-.17-.1-90.81-50.94,2.44-3.25.09-.12-.06-.13-2.6-5.64,3.84-4.26,15.48-4,.32-.08-.17-.29L233.44,129l-.11-.17-.19.06-12.92,4.61L213,122.34,243.2,81.82l.09-.12-.06-.14-27.9-60.13L251.4.25h8.77m.16-.25h-9L215,21.33l28,60.34-30.34,40.66,7.45,11.45,13.11-4.67,3.55,5.78-15.55,4-4,4.44,2.67,5.78-2.61,3.48,91,51.08-3,10.33,44.07,31.27L370.55,196l28.89-19.11,5.78-7.36L389.66,148V56l21.78-28.44-17.33.88-9.34-7.77-22.22,7.77-8,12.89-35.11-4.44L288.77,13.78H270.55l-.22,27.78,6.89,11.77,6.22,2-2.67,12L260.33,36l3.59-27.44L260.33,0Z"/><polygon class="cls-2" points="103.03 9.19 72.69 19.53 49.67 0.13 250.87 0.13 214.94 21.22 203.24 33.24 137.04 34.87 103.03 9.19"/><path class="cls-3" d="M250.41.25,214.88,21.11l0,0,0,0L203.23,33.08l-66.15,1.67L103.15,9.13l-.1-.08-.13,0-30.2,10.3L50,.25H250.41m.92-.25h-202L72.66,19.67,103,9.33,137,35l66.33-1.67,11.67-12L251.33,0Z"/><polygon class="cls-2" points="0.13 374.88 0.13 0.13 49.33 0.13 72.64 19.81 102.98 9.47 136.87 35.06 133.87 65.06 146.83 74.55 124.66 94.16 126 95.83 114.92 106.58 104.88 161.65 86.85 187.5 96.9 204.06 97.12 209.04 92.21 251.31 99.31 270.21 94.63 277.77 106.44 300.06 118.44 308.07 121.5 312.96 120.43 320.42 129.48 333.19 88.99 338.88 73.57 355.7 73.54 366.85 78.52 364.99 83.46 374.88 0.13 374.88"/><path class="cls-3" d="M49.24.25,72.5,19.86l.11.09.13,0L103,9.61l33.78,25.5-3,29.87v.14l.12.08,12.78,9.36L124.67,94l-.18.16.15.19,1.2,1.49-11,10.67-.06.06v.08l-10,54.94-18,25.79-.09.13.08.14,10,16.45L97,209v0L92.08,251.3v.06l0,.06,7.07,18.77-4.61,7.46-.07.12.06.13,11.78,22.22,0,.05,0,0,11.92,7.94,3,4.8-1,7.46,0,.09.06.08,8.9,12.51L89,338.75h-.09l-.06.07L73.48,355.61l-.07.07V367l.34-.13,4.71-1.76,4.8,9.61H.25V.25h49M49.33,0H0V375H83.66l-5.08-10.17-4.92,1.84V355.78L89,339l40.69-5.72v0l-9.13-12.82,1-7.54h0L118.51,308l-12-8L94.77,277.78l4.67-7.56-7.11-18.89,4.9-42.24v0L97,204,87,187.5l18-25.83,10-55,11.17-10.83-1.34-1.67L147,74.54,134,65l3-30L103,9.33,72.66,19.67,49.33,0Z"/><path class="cls-2" d="M225.33,374.88l-7.58-7.3-2.88-.47L188,362.88l-38-19.32-4.32,0-25.29-53.37-6.62-4.39-3.76-2.49,2.45-3.61,3-4.5L108.46,240l-11.1-30.9L97.13,204l-10-16.49,18-25.76,19.94-8.29,35.87-1.36-4.93,29L160.6,198l12.67-13.45L201,189.92,211,181l-12.71-2.9,19-25.39,90.87,51-3,10.32,44.06,31.26L335.3,277.8l18.26,24.94-6.24,36.8,12.22,35.34Zm-39-33.82,1.8-2.64-26.93-25.68-8,4.56,14.37,16.84,5.13-1.34Z"/><path class="cls-3" d="M160.78,152.22l-4.91,28.85v.11l4.55,16.67.12.43.31-.33,12.46-13.24L201,190l.12,0,.09-.08,9.77-8.67.36-.33-.47-.1-12.29-2.81,18.81-25.14L308,203.79l-3,10.14,0,.17.15.1,43.9,31.16-13.88,32.32,0,.13.08.12,18.16,24.8-6.2,36.79v.06l0,.06,12.15,35.11H225.43l-7.59-7.26-.06-.05-.08,0-2.81-.44-26.81-4.22-38-19.31-.06,0h-4.24l-25.26-53.31,0-.06-.06,0-6.57-4.34-3.66-2.41,2.38-3.51,0-.07h0l3-4.43.06-.09,0-.1-7.12-35.14L97.49,209.07,97.25,204v-.07l0,0L87.3,187.51l17.87-25.64,19.89-8.29,35.72-1.36m6.79,182.06.16,0,5-1.3,13.47,8.16.21.13.13-.2,1.67-2.45.12-.17-.15-.15L161.4,312.71l-.14-.13-.16.09-7.78,4.44-.26.15.19.23,14.22,16.67.1.12M161.07,152,125,153.33l-20,8.34L87,187.5,97,204l.24,5.11h0L108.33,240l7.11,35.11-3,4.49h0l-2.52,3.72,3.87,2.55,6.57,4.34,25.33,53.45H150L188,363l26.85,4.23,2.81.44,7.67,7.33H359.71l-12.27-35.44,6.22-36.89-18.22-24.89,14-32.51L305.33,214l3-10.33-91-51.08-19.17,25.63,12.66,2.89L201,189.78l-27.78-5.34-12.56,13.34-4.55-16.67,5-29.15Zm6.59,182-14.22-16.67,7.78-4.44L188,338.44l-1.67,2.45-13.56-8.22L167.66,334Z"/><polygon class="cls-2" points="83.74 374.88 78.75 364.89 83.49 363.12 94.71 345.32 89.25 339.09 129.53 333.43 127.75 340.97 135.18 343.79 141.69 349.07 145.72 343.8 150 343.8 187.95 363.11 198.06 374.88 83.74 374.88"/><path class="cls-3" d="M129.37,333.58l-1.72,7.25-.05.22.2.07,7.3,2.77,6.41,5.19.2.17.15-.21,3.93-5.12h4.15l37.91,19.28,9.94,11.55h-114L78.93,365l4.6-1.73.08,0,0-.07,11.11-17.67.1-.15-.12-.14-5.24-6,39.87-5.6m.32-.3L89,339l5.55,6.33L83.44,363l-4.86,1.82h0L83.66,375H198.33L188,363l-38-19.33h-4.34l-4,5.22-6.44-5.22-7.33-2.78,1.8-7.61Z"/><polygon class="cls-2" points="198.39 374.88 188.32 363.18 214.69 367.33 212.61 374.88 198.39 374.88"/><path class="cls-3" d="M188.64,363.35l25.9,4.08-2,7.32H198.45l-9.81-11.4M188,363l10.33,12H212.7l2.15-7.77L188,363Z"/><polygon class="cls-2" points="115.13 106.69 126.16 96.03 130.32 101.19 150.75 80.92 150.79 71.05 147.03 74.38 134.13 64.94 137.12 35.12 203.34 33.45 214.97 21.55 242.86 81.66 212.56 122.25 165.12 127.45 160.97 151.84 125 153.21 105.17 161.47 115.13 106.69"/><path class="cls-3" d="M214.93,21.76l27.78,59.88-30.18,40.45-47.33,5.22-.19,0,0,.19-4.12,24.2L125,153.08h0l0,0-19.58,8.16,9.9-54.47,10.92-10.58,4,5,.17.21.2-.19L150.84,81l.07-.08V70.78l-.41.36L147,74.22l-12.75-9.34,3-29.64,66.11-1.66h.1l.07-.08,11.42-11.74m.07-.43-11.67,12L137,35l-3,30,13,9.54,3.63-3.21v9.5L130.33,101l-4.16-5.16L115,106.67l-10,55,20-8.34L161.07,152l4.15-24.4,47.44-5.23L243,81.67,215,21.33Z"/><path class="cls-3" d="M147,270.6a.38.38,0,0,0,0-.75.38.38,0,0,0,0,.75Z"/><line class="cls-4" x1="214.85" y1="367.23" x2="214.85" y2="367.22"/><polygon class="cls-1" points="283.44 55.33 280.77 67.33 260.33 36 263.92 8.56 266.11 13.78 270.55 13.78 270.33 41.56 277.22 53.33 283.44 55.33"/><polygon class="cls-1" points="145.66 343.67 141.66 348.89 135.22 343.67 127.89 340.89 129.69 333.28 129.68 333.26 120.55 320.44 121.6 312.9 121.6 312.89 118.51 307.97 106.55 300 94.77 277.78 99.44 270.22 92.33 251.33 97.23 209.09 97.24 209.11 97.24 209.12 108.33 240 115.44 275.11 112.41 279.6 112.41 279.61 109.89 283.33 113.76 285.88 120.33 290.22 145.66 343.67"/><polygon class="cls-1" points="225.33 375 212.7 375 214.85 367.23 217.66 367.67 225.33 375"/><polygon class="cls-1" points="221.22 138.89 217.22 143.33 219.89 149.11 217.28 152.59 198.11 178.22 210.77 181.11 201 189.78 173.22 184.44 160.66 197.78 156.11 181.11 161.07 151.96 165.22 127.56 212.66 122.33 220.11 133.78 233.22 129.11 236.77 134.89 221.22 138.89"/><polygon class="cls-1" points="188 338.44 186.33 340.89 172.77 332.67 167.66 334 153.44 317.33 161.22 312.89 188 338.44"/><polygon class="cls-1" points="94.55 345.33 83.44 363 78.58 364.82 78.58 364.83 73.66 366.67 73.66 355.78 89 339 94.55 345.33"/><polygon class="cls-1" points="150.66 71.33 150.66 80.83 130.33 101 126.17 95.84 124.83 94.17 147.03 74.54 150.66 71.33"/></g><g id="marked_area"><path class="cls-5" d="M252.11,164.61,250.35,175l-.19,1.17-.21,1.2-.08.5-.9,5.35h0l-1,5.83v.09l-.1.57-.09.53-1,6.16-.58,3.44-1.2,1.33-.31.34c-.17.19-.34.39-.52.58l-2.66,3L238,208.89l-1.9,2.11c-.25-.65-.56-1.42-.93-2.29-.22-.53-.47-1.1-.75-1.69-1.11-2.43-2.09-4.17-3-5.78a67.37,67.37,0,0,0-4.28-6.88l-.44-.62a42.75,42.75,0,0,0-2.91-3.6,27.26,27.26,0,0,0-4.22-4,18.65,18.65,0,0,0-4.33-2.55,17.1,17.1,0,0,0-2.21-.71l-.33-.91-1.16-3.2.46,0,3.52.43c4.75.56,9.51,1.09,14.26,1.66h0l6.51.81-1-3.74c-.18-.64-.35-1.29-.53-1.93l-.33-1.19-.06-.22-.17-.59h0c-.07-.24-.13-.49-.2-.74-.73-2.61-1.46-5.21-2.18-7.83l.07-3.29,9.35-6.82.48.41.73.63,1.24,1.06.11.09Z"/><path class="cls-5" d="M236.34,181.68l-6.51-.81Q233.08,181.26,236.34,181.68Z"/></g><g id="text"><text class="cls-6" transform="translate(37.8 144.33)">DRC</text><text class="cls-6" transform="translate(168.7 87.92)">Uganda</text><text class="cls-6" transform="translate(109.74 368.49)">Zambia</text><text class="cls-6" transform="translate(207.46 293.43)"><tspan class="cls-7">T</tspan><tspan x="6.5" y="0">anzania</tspan></text><text class="cls-6" transform="translate(295.82 115.67)"><tspan class="cls-8">K</tspan><tspan x="7.37" y="0">en</tspan><tspan class="cls-9" x="20.35" y="0">y</tspan><tspan x="25.94" y="0">a</tspan></text><text class="cls-6" transform="translate(319.19 14.33)">Ethiopia</text><text class="cls-6" transform="translate(428.55 68.52)">Somalia</text><text class="cls-6" transform="translate(129.47 14.33)">South Sudan</text></g></svg>