<svg xmlns="http://www.w3.org/2000/svg" viewBox="0 0 375 375"><defs><style>.cls-1{fill:gray;}.cls-2,.cls-5{fill:none;}.cls-3{opacity:0.3;}.cls-4{fill:#4d4d4d;}.cls-5{stroke:#4d4d4d;stroke-miterlimit:10;stroke-dasharray:12.36 2.47 4.94 2.47;}</style></defs><g id="vegetation_changes"><path class="cls-1" d="M309.89,64.47l-15,88.87L282.79,225h-20v18.75h-19.2v71.6c-1.21,6.07-2.49,11.94-3.45,15.36-.43,1.52-.92,3-1.47,4.49L202.78,375c-2.68-7-6.37-16.14-11.22-26.68-7.47-16.25-14-27.88-20.1-38.68-8.65-15.27-16.35-28.9-28.63-46l-3-4.12a262.92,262.92,0,0,0-19.47-24.1c-8.18-9-16-17.62-28.23-26.69-6.66-5-15.83-11.68-29-17a110.78,110.78,0,0,0-14.8-4.79l-10-27.49,3-.14c39.63,4.92,79.35,9.25,119,14l.3,0q21.81,2.61,43.55,5.45c-4.66-17.3-9.37-34.34-14.09-51.32h0c-5.31-19.11-10.66-38.15-16-57.37l.49-22,62.6-45.65Z"/></g><g id="land_map"><path class="cls-2" d="M191.21,131c-.14-.53-.29-1.06-.44-1.59.18.65.37,1.3.55,2l.42,1.52C191.56,132.23,191.38,131.6,191.21,131Z"/><path class="cls-2" d="M171.46,309.64c1.52,2.7,3.08,5.45,4.66,8.32-1.59-2.87-3.14-5.62-4.67-8.32-2.7-4.78-5.31-9.39-8-14C166.15,300.25,168.76,304.86,171.46,309.64Z"/><path class="cls-2" d="M62.74,161.86l6.14.73L65,162.14Z"/><path class="cls-2" d="M69.06,194.29c1.12.53,2.21,1.07,3.26,1.62C71.27,195.37,70.18,194.82,69.06,194.29Z"/><path class="cls-2" d="M112.73,167.69l3.11.36-3.08-.35-5.05-.58-3.58-.42Z"/><path class="cls-2" d="M160.47,173.27l-14.88-1.76-20.9-2.44q11.92,1.37,23.85,2.78Z"/><path class="cls-2" d="M204.32,178.75l-42.63-5.34,10,1.21,9,1.11Q192.5,177.2,204.32,178.75Z"/><path class="cls-2" d="M262,309.27l-3.87,4.3c.6-.68,1.21-1.35,1.82-2Z"/><path class="cls-2" d="M188.85,122.48c.45,1.65.92,3.3,1.37,5l-4-14.32Q187.55,117.79,188.85,122.48Z"/><rect class="cls-2" x="190.22" y="127.43" width="0.01" height="0.01"/><polygon class="cls-2" points="309.88 64.48 304.97 93.6 304.96 93.6 309.88 64.48"/><path class="cls-2" d="M191.32,131.34c0-.12-.07-.24-.11-.36-.14-.53-.29-1.06-.44-1.59C191,130,191.14,130.69,191.32,131.34Z"/><path class="cls-2" d="M176.12,318c-1.59-2.87-3.14-5.62-4.67-8.32-2.7-4.78-5.31-9.39-8-14,2.69,4.6,5.3,9.21,8,14C173,312.34,174.54,315.09,176.12,318Z"/><path class="cls-2" d="M69.06,194.29c1.12.53,2.21,1.07,3.26,1.62C71.27,195.37,70.18,194.82,69.06,194.29Z"/><path class="cls-2" d="M112.76,167.7l-5.05-.58,5,.57Z"/><path class="cls-2" d="M160.77,173.3l-.24,0h.09Z"/><path class="cls-2" d="M204.32,178.75l-42.63-5.34,10,1.21,9,1.11Q192.5,177.2,204.32,178.75Z"/><path class="cls-2" d="M188.85,122.48c.45,1.65.92,3.3,1.37,5l-4-14.32Q187.55,117.79,188.85,122.48Z"/><rect class="cls-2" x="190.22" y="127.43" width="0.01" height="0.01"/><polygon class="cls-2" points="309.88 64.48 304.97 93.6 304.96 93.6 309.88 64.48"/><path class="cls-2" d="M191.32,131.34c0-.12-.07-.24-.11-.36-.14-.53-.29-1.06-.44-1.59C191,130,191.14,130.69,191.32,131.34Z"/><path class="cls-2" d="M176.12,318c-1.59-2.87-3.14-5.62-4.67-8.32-2.7-4.78-5.31-9.39-8-14,2.69,4.6,5.3,9.21,8,14C173,312.34,174.54,315.09,176.12,318Z"/><path class="cls-2" d="M69.06,194.29c1.12.53,2.21,1.07,3.26,1.62C71.27,195.37,70.18,194.82,69.06,194.29Z"/><path class="cls-2" d="M112.76,167.7l-5.05-.58,5,.57Z"/><path class="cls-2" d="M160.77,173.3l-.24,0h.09Z"/><path class="cls-2" d="M204.32,178.75l-42.63-5.34,10,1.21,9,1.11Q192.5,177.2,204.32,178.75Z"/><g class="cls-3"><path class="cls-2" d="M142.84,263.63q1.72,2.4,3.33,4.72c-1.08-1.54-2.19-3.12-3.34-4.72-.36-.51-.73-1-1.09-1.54Z"/><path class="cls-2" d="M160.53,173.28h.09l.15,0Z"/><path class="cls-2" d="M41.46,159.27l11.79,1.45q-5.89-.71-11.79-1.44l-3,.13Z"/><path class="cls-2" d="M53.25,160.72l6.93.83-6.49-.77Z"/><path class="cls-2" d="M160.47,173.27l-14.88-1.76,2.95.34Z"/><polygon class="cls-2" points="281.46 232.81 280.92 236.08 273.95 277.32 280.91 236.08 281.46 232.81"/><path class="cls-2" d="M204.32,178.75l-42.63-5.34,10,1.21,9,1.11Q192.5,177.2,204.32,178.75Z"/></g><path class="cls-4" d="M21.22,164.43l7.51,23.07.81,2.47L0,209V171.77l21.22-7.34m.63-1.28-1,.33L-.33,170.82l-.67.24v39.73l1.54-1,29.54-19,.65-.42-.24-.73-.81-2.47-7.51-23.07-.32-1Z"/><path class="cls-4" d="M50.13,0,37.5,18.87,25,37.5,0,74.87V0H50.13M52-1H-1V78.16L.83,75.43l25-37.37L38.33,19.43,51,.56,52-1Z"/><path class="cls-2" d="M188.85,122.48c.45,1.65.92,3.3,1.37,5l-4-14.32Q187.55,117.79,188.85,122.48Z"/><rect class="cls-2" x="190.22" y="127.43" width="0.01" height="0.01"/><path class="cls-2" d="M191.21,131c-.14-.53-.29-1.06-.44-1.59.18.65.37,1.3.55,2l.42,1.52C191.56,132.23,191.38,131.6,191.21,131Z"/><path class="cls-2" d="M142.84,263.63q1.72,2.4,3.33,4.72c-1.08-1.54-2.19-3.12-3.34-4.72-.36-.51-.73-1-1.09-1.54Z"/><path class="cls-2" d="M171.46,309.64c1.52,2.7,3.08,5.45,4.66,8.32-1.59-2.87-3.14-5.62-4.67-8.32-2.7-4.78-5.31-9.39-8-14C166.15,300.25,168.76,304.86,171.46,309.64Z"/><path class="cls-2" d="M160.53,173.28h.09l.15,0Z"/><path class="cls-2" d="M41.46,159.27l11.79,1.45q-5.89-.71-11.79-1.44l-3,.13Z"/><path class="cls-2" d="M53.25,160.72l6.93.83-6.49-.77Z"/><path class="cls-2" d="M62.74,161.86l6.14.73L65,162.14Z"/><path class="cls-2" d="M69.06,194.29c1.12.53,2.21,1.07,3.26,1.62C71.27,195.37,70.18,194.82,69.06,194.29Z"/><path class="cls-2" d="M112.73,167.69l3.11.36-3.08-.35-5.05-.58-3.58-.42Z"/><path class="cls-2" d="M160.47,173.27l-14.88-1.76-20.9-2.44q11.92,1.37,23.85,2.78Z"/><path class="cls-2" d="M204.32,178.75l-42.63-5.34,10,1.21,9,1.11Q192.5,177.2,204.32,178.75Z"/><path class="cls-2" d="M262,309.27l-3.87,4.3c.6-.68,1.21-1.35,1.82-2Z"/><polygon class="cls-2" points="281.46 232.81 280.92 236.08 273.95 277.32 280.91 236.08 281.46 232.81"/><polygon class="cls-2" points="309.88 64.48 304.97 93.6 304.96 93.6 309.88 64.48"/><path class="cls-4" d="M237.31,3l2.87,2.46,4.94,4.23,8.28,7.08.74.63,55.2,47.25-4.87,28.84L297.63,134l-1.32,7.85-1.36,8-.48,2.8L190.72,127.05v-.12h-.12c-.19-.7-.39-1.41-.59-2.11s-.45-1.65-.68-2.47c-.87-3.13-1.74-6.26-2.62-9.37l-.39-1.42-.28-1-.15-.56-.21-.73C181.46,94.17,178,81.69,174.75,70l.48-21.71,17.06-12.45h0l.13-.1L237.31,3m0-.64-45.2,33h0L174.74,48l-.49,22q5.46,19.74,10.95,39.33l.36,1.29c.22.8.45,1.61.67,2.42q1.32,4.68,2.62,9.37c.45,1.65.92,3.3,1.37,5h0l104.65,25.9.56-3.34,1.36-8,1.32-7.85L305,93.6l4.92-29.12L254.47,17.05l-.74-.63-8.28-7.08-4.94-4.23-3.17-2.72Z"/><path class="cls-4" d="M190.94,128.13l103.37,25.58-6,35.33v.05l-6.58,39-.1.6L281,232.5l0,.23-.48,2.82-64.1-5.07,26.67-65.85.21-.52-.53-.15L215.48,156l-.4-.12-.19.38-10.43,21.05c-.51-1.87-1-3.74-1.52-5.61l-.75-2.75-.74-2.71c0-.07,0-.14,0-.19l-.16-.61-.17-.6q-1.53-5.64-3.08-11.25c-1.19-4.34-2.38-8.65-3.58-13-.11-.38-.21-.76-.31-1.13s-.27-1-.4-1.43a2.29,2.29,0,0,0-.08-.28,1.05,1.05,0,0,0-.05-.19c-.36-1.32-.72-2.63-1.09-4-.09-.31-.18-.63-.26-.94L192,132l-.21-.76c-.09-.33-.18-.66-.28-1l-.27-1-.31-1.13m-.71-.69.54,1.95c.18.65.37,1.3.55,2l.42,1.52c.08.31.17.63.26.95.37,1.31.73,2.62,1.09,3.94,0,.15.09.3.13.46.24.85.47,1.71.71,2.57,1.2,4.32,2.39,8.63,3.58,13q1.55,5.61,3.08,11.25l.33,1.21a1.24,1.24,0,0,1,0,.16l1.5,5.49,1.86,6.89,11-22.24,27.26,7.93-26.93,66.48,65.24,5.16.55-3.27,0-.22.65-3.82.1-.6,6.59-39h0l6-35.78-104.65-25.9Z"/><path class="cls-4" d="M216,231.45l64.33,5.09-6.86,40.7-3.87,22.9L262,308.55l-55.2-54.38L216,231.45m-.32-.53-9.46,23.37,55.81,55,8-8.9L274,277.32l7-41.24-65.24-5.16Z"/><path class="cls-4" d="M161.64,236.24l40.66,27.41.51.35.23-.57,3.35-8.26,54.94,54.12-1.73,1.92-.59.65-1.23,1.37-1.14,1.26-.52.59-12.06,13.37-5.78,6.42-23.15,25.68-7.69,8.53-4.49,5c-.26-.66-.52-1.35-.8-2.06l-.23-.59c-.18-.48-.38-1-.58-1.48l-.3-.76c-1.31-3.26-2.65-6.53-4-9.69-.73-1.74-1.53-3.57-2.42-5.58-.27-.63-.56-1.27-.84-1.89s-.58-1.29-.87-1.93c-.2-.45-.41-.9-.62-1.35l-.28-.62c-4.08-8.88-8.22-17.14-13-26q-1.22-2.24-2.41-4.38c-1.27-2.3-2.53-4.54-3.76-6.71l-.91-1.62c-2.81-5-5.35-9.46-8-14-6-10.33-11.35-18.76-17.31-27.33-1-1.49-2.11-3-3.34-4.73l-.85-1.19-.25-.35-1.09-1.52-.54-.74,21.13-23.3m-.08-.66L139.87,259.5l1.87,2.59,1.1,1.54q1.72,2.4,3.33,4.72c6.81,9.8,12.19,18.54,17.29,27.3,2.69,4.6,5.3,9.21,8,14,1.52,2.7,3.08,5.45,4.66,8.32q1.2,2.15,2.41,4.38c4.06,7.47,8.36,15.82,13,26,.3.66.6,1.31.89,2s.59,1.29.87,1.93.57,1.26.84,1.89q1.28,2.86,2.42,5.57c1.48,3.48,2.81,6.72,4,9.69.3.76.6,1.51.88,2.23l1.32,3.41q6.36-7,12.72-14.11l23.15-25.69q8.92-9.9,17.84-19.79c.55-.61,1.1-1.23,1.66-1.84s1.21-1.35,1.82-2l2-2.27-55.81-55-3.63,9-41-27.66Z"/><path class="cls-4" d="M215.6,157.11l26.33,7.66-26.73,66-9.45,23.37-3.4,8.38-40.51-27.31-35.08-23.64,33.91-37.74h0l.92.11,42.63,5.34.35,0,.16-.32,10.83-21.86m-.26-.6-11,22.24-42.63-5.34-.92-.11-.24,0h-.06L126,211.62l35.55,24,41,27.66,3.63-9,9.46-23.37,26.93-66.48-27.26-7.93Z"/><path class="cls-4" d="M41.44,159.78q5.87.74,11.74,1.43l.45.07,6.48.77,1.63.2.93.11,2.31.28,1.92.22,1.92.23,4,.47,4.11.49,1.27.14,1.07.13,6.12.71.65.08,18,2.09,1.74.2,1.84.22,5,.58,1.62.18,1.46.17,5.21.6,3.64.42,2.16.25L145.53,172l13.92,1.64-33.81,37.64-.39.42.48.32,35.07,23.64-20.89,23c-2.68-3.69-5.93-8.07-9.89-12.92l-.74-.91c-1.7-2.07-3.54-4.23-5.47-6.42l-.23-.26-.08-.09-.2-.23c-.22-.26-.45-.52-.69-.77-.6-.67-1.21-1.36-1.84-2.05l-1.53-1.68-.8-.87-1.5-1.64c-1.4-1.51-2.47-2.67-3.5-3.74-.78-.83-1.58-1.67-2.39-2.5l-1.23-1.24a150,150,0,0,0-17.34-15.07c-3.81-2.84-7.94-5.87-13-9l-1.88-1.11-.48-.28-.48-.28c-.66-.38-1.32-.75-2-1.12s-1.44-.78-2.08-1.1c-1-.54-2.12-1.09-3.27-1.63l-1.14-.53c-1.11-.52-2.3-1.05-3.55-1.57l-.71-.3-.51-.2a109.37,109.37,0,0,0-14.61-4.76l-2.1-5.8-7.53-20.8,2.31-.1m0-.5-3,.13,7.76,21.44,2.19,6.05a109.19,109.19,0,0,1,14.8,4.8l1.22.5c1.21.51,2.39,1,3.53,1.56l1.13.53c1.12.53,2.21,1.07,3.26,1.62.71.36,1.4.73,2.07,1.1l2,1.11,1,.56,1.87,1.11c5.18,3.16,9.43,6.29,13,8.93a150.56,150.56,0,0,1,17.29,15l1.22,1.24c.81.83,1.61,1.66,2.39,2.49q1.77,1.86,3.49,3.74c.77.83,1.53,1.67,2.3,2.51l1.53,1.68,1.84,2c.31.33.6.67.89,1l.05.06.26.29c2,2.21,3.76,4.34,5.45,6.41.26.3.5.6.74.9,3.92,4.81,7.22,9.24,10.24,13.4l21.69-23.92-35.55-24,34.46-38.35-14.88-1.76-20.9-2.44-8.85-1-3.08-.35-5.05-.58-3.58-.42-18.06-2.09-6.76-.79L77,163.55l-4.11-.49-4-.47L65,162.14l-2.3-.28-.93-.11-1.63-.2-6.49-.77-.44-.06q-5.89-.71-11.79-1.44Z"/><line class="cls-5" x1="123.65" x2="375" y2="129.76"/></g></svg>