<svg xmlns="http://www.w3.org/2000/svg" viewBox="0 0 550 375"><defs><style>.cls-1{fill:#4d4d4d;}.cls-2{fill:#b3b3b3;}.cls-3,.cls-5{fill:#1a1a1a;}.cls-4,.cls-6{fill:#fff;}.cls-4{stroke:#fff;stroke-miterlimit:10;stroke-width:2px;}.cls-5,.cls-6{font-size:12px;}.cls-5{font-family:Roboto-Regular, Roboto;}.cls-6{font-family:Lato-Semibold, Lato;font-weight:600;}.cls-7{letter-spacing:0em;}.cls-8{letter-spacing:-0.02em;}.cls-9{letter-spacing:-0.01em;}.cls-10{letter-spacing:0em;}.cls-11{letter-spacing:-0.01em;}.cls-12{letter-spacing:-0.01em;}.cls-13{letter-spacing:-0.02em;}</style></defs><g id="base_map"><path class="cls-1" d="M550,98.32,544.67,90l-13,8V86.67l-17-27.34-20.34,7-2.66,8.34L458.33,98.33V122l-14.66,15L419,75l2.67-2.67-1-6.33L411,72,389.33,44.33H344l-4.67-9-11,3.34L302.33,17l-6,3.67L315.67,52l21-10,20,21L335.33,88,275,113.67,269,91,229.33,28,223,32l19.33,47.67L278,123.33l34.33-6.66-1.33,14-61.67,75L260.67,255l-31,25.67L236,303l-15.67,10.67v12L193,357.33,150.67,367,112.33,266.33,124,234.67,100,182l4.33-21.67-9-6.33-13,2.33-7-12-32,9.34-30,2.33L0,147.11V375H550V168.43l-14-19.76,14,8.21ZM293.11,307.56l-10,4.66L275,309.11l-2.33-13.33,6.66-35.34,24-19.55,5.11,13.55Zm172-158.89-8.67-2.45,2.89-17.78,9.78,14.23Z"/><polygon class="cls-1" points="232.22 0 228 10 208.67 15 159.33 1.67 150.67 15.33 115 0 232.22 0"/><polygon class="cls-1" points="9.01 0 0 17.66 0 0 9.01 0"/><polygon class="cls-2" points="112.86 266.33 124.54 234.65 100.52 181.94 104.88 160.11 95.45 153.47 82.59 155.78 75.56 143.74 43.24 153.18 13.46 155.49 0.5 146.84 0.5 17.78 9.32 0.5 114.9 0.5 150.86 15.96 159.56 2.25 208.67 15.52 226 11.04 229.71 21.27 228.87 27.7 222.38 31.8 241.9 79.93 277.8 123.88 311.77 117.29 310.52 130.47 248.79 205.54 260.11 254.81 229.1 280.49 235.42 302.79 219.83 313.4 219.83 325.48 192.73 356.88 150.98 366.42 112.86 266.33"/><path class="cls-3" d="M114.79,1l35.49,15.25.78.34.45-.72,8.27-13L208.41,16l.25.06.26-.06,16.76-4.33,3.52,9.69-.8,6.08-5.93,3.74-.71.45.31.78L241.4,80.05l.06.14.1.11L277.23,124l.37.47.59-.12,33-6.4L310,130.27,248.56,205l-.31.38.11.48,11.2,48.73L229,279.9l-.5.42.18.62,6.13,21.64-15.07,10.26-.44.3V325.3l-26.87,31.13-41.17,9.4L113.4,266.32,124.94,235l.14-.39-.17-.37L101,181.88l4.27-21.35.13-.64-.53-.38-9-6.33-.35-.24-.41.08-12.31,2.2-6.65-11.39-.39-.68-.75.22-31.9,9.31L13.6,155,1,146.57V17.9L9.62,1H114.79M115,0H9L0,17.66V147.11L13.33,156l30-2.33,32-9.34,7,12,13-2.33,9,6.33L100,182l24,52.67-11.67,31.66L150.67,367,193,357.33l27.33-31.66v-12L236,303l-6.33-22.33,31-25.67-11.34-49.33,61.67-75,1.33-14L278,123.33,242.33,79.67,223,32l6.33-4,.89-6.78-3.91-10.78L208.67,15,159.33,1.67l-8.66,13.66L115,0Z"/><polygon class="cls-2" points="419.59 75.12 422.2 72.5 421.05 65.18 411.12 71.34 389.57 43.83 344.3 43.83 339.58 34.73 328.44 38.11 302.38 16.39 295.64 20.5 315.48 52.64 336.56 42.61 356 63.02 335.03 87.59 275.33 112.98 269.46 90.8 229.85 27.89 230.73 21.16 226.97 10.79 228.37 10.42 232.55 0.5 549.5 0.5 549.5 96.61 544.83 89.32 532.17 97.11 532.17 86.53 514.88 58.73 493.93 65.94 491.24 74.36 457.83 98.07 457.83 121.8 443.85 136.1 419.59 75.12"/><path class="cls-3" d="M549,1V94.91l-3.49-5.45-.53-.83-.83.52-11.48,7.06V86.38l-.15-.24-17-27.34-.42-.67-.76.25-20.34,7-.47.17-.15.48-2.56,8L457.75,97.51l-.42.3v23.78L444,135.2l-23.86-60,2.21-2.2.36-.36-.08-.51-1-6.33-.24-1.48-1.28.79-8.91,5.53-21.11-27-.3-.38H344.61l-4.39-8.46-.39-.74-.79.24-10.48,3.19L303,16.23l-.55-.46-.61.38-6,3.67-.86.52.53.86,19.34,31.33.47.76.81-.39,20.35-9.69L355.32,63l-20.6,24.13L275.67,112.3,270,90.74l0-.14-.08-.13-39.48-62.7.84-6.42,0-.24-.08-.23-3.54-9.75.63-.16.48-.13.19-.45,4-9.39H549m1-1H232.22L228,10l-1.69.44,3.91,10.78L229.33,28,269,91l6,22.67L335.33,88l21.34-25-20-21-21,10L296.33,20.67l6-3.67,26,21.67,11-3.34,4.67,9h45.33L411,72l9.67-6,1,6.33L419,75l24.67,62,14.66-15V98.33l33.34-23.66,2.66-8.34,20.34-7,17,27.34V98l13-8L550,98.32V0Z"/><polygon class="cls-2" points="457.01 145.86 459.62 129.75 468.51 142.67 464.9 148.09 457.01 145.86"/><path class="cls-3" d="M459.92,131.06l8,11.62-3.22,4.83-7.11-2,2.35-14.44m-.59-2.62-2.89,17.78,8.67,2.45,4-6-9.78-14.23Z"/><polygon class="cls-2" points="275.44 308.75 273.18 295.78 279.79 260.71 303.11 241.72 307.91 254.46 292.69 307.2 283.09 311.68 275.44 308.75"/><path class="cls-3" d="M302.88,242.54l4.51,11.94-15.11,52.37-9.21,4.28-7.18-2.75-2.2-12.59L280.25,261l22.63-18.44m.45-1.65-24,19.55-6.66,35.34L275,309.11l8.11,3.11,10-4.66,15.33-53.12-5.11-13.55Z"/><polygon class="cls-2" points="537.75 150.28 549.5 157.17 549.5 166.86 537.75 150.28"/><path class="cls-3" d="M539.5,151.88l9.5,5.57v7.84l-9.5-13.41m-3.5-3.21,14,19.76V156.88l-14-8.21Z"/></g><g id="marked_area"><circle class="cls-4" cx="229" cy="188.33" r="3.04"/></g><g id="text"><text class="cls-5" transform="translate(139.03 113.24)">Africa</text><text class="cls-6" transform="translate(203.85 162.66)"><tspan class="cls-7">S</tspan><tspan x="6.52" y="0">e</tspan><tspan class="cls-8" x="12.89" y="0">r</tspan><tspan x="17.11" y="0">en</tspan><tspan class="cls-9" x="30.22" y="0">g</tspan><tspan class="cls-10" x="36.41" y="0">e</tspan><tspan x="42.73" y="0">ti </tspan><tspan class="cls-11" x="-10.82" y="14.4">N</tspan><tspan class="cls-12" x="-1.78" y="14.4">a</tspan><tspan x="4.17" y="14.4">tional </tspan><tspan class="cls-13" x="37.25" y="14.4">P</tspan><tspan x="44.39" y="14.4">ark</tspan></text><text class="cls-5" transform="translate(432.85 19)">Asia</text></g></svg>