<svg xmlns="http://www.w3.org/2000/svg" viewBox="0 0 550 375"><defs><style>.cls-1{fill:#4d4d4d;}.cls-2{fill:#b3b3b3;}.cls-3{font-size:12px;font-family:Lato-Bold, Lato;font-weight:700;}.cls-4{letter-spacing:-0.1em;}</style></defs><g id="regulation"><path class="cls-1" d="M494.77,240.07a5.83,5.83,0,1,1-5.83-5.84A5.83,5.83,0,0,1,494.77,240.07Z"/><path class="cls-1" d="M141.67,223.84c-.37,1.38-.93,3.58-1.5,6.34-.81,3.92-.85,5.12-1.67,9.33a55.33,55.33,0,0,1-2,8.33,35.47,35.47,0,0,1-4.17,8q-2.45,3.72-5.54,8.51H44Q42,250.6,40.17,236.84l4.33,6.5a30.18,30.18,0,0,0,.67-6,35.73,35.73,0,0,0-1-8,101.63,101.63,0,0,0-3-11,36.71,36.71,0,0,1,5.83,6.5,36,36,0,0,1,4.67,9.34c.4-1.4.93-3.34,1.5-5.67.35-1.47,1.59-6.63,2.66-13.67.47-3,1-6.8,1.34-11.16.26,2.14.68,5.12,1.33,8.66a93.55,93.55,0,0,0,2.5,11,55.55,55.55,0,0,0,7,14.5,41,41,0,0,0,1.33-10c0-3.17-.35-4.56-.5-10,0-1.15-.1-4.06,0-6.83A65.24,65.24,0,0,1,71,196.84a41.94,41.94,0,0,0,.83,8.17,60,60,0,0,0,2.17,7.5c1.6,4.8,2.17,5.76,3,8.33a47.6,47.6,0,0,1,2.17,11.5,36.2,36.2,0,0,0,1.5-6.33,33.4,33.4,0,0,0,.33-4.17c.1-3,.25-6.85.5-12.16.88,3.69,1.55,6.72,2,8.83.82,3.8,1.06,5.19,1.83,8.67,1,4.69,1.4,5.65,1.84,7.66a52.8,52.8,0,0,1,1,14.17,39.7,39.7,0,0,0,4.16-10.5,49.44,49.44,0,0,0,1.17-9.83,89.16,89.16,0,0,0-.17-11.17,22.55,22.55,0,0,1,2.17,4.67,22.8,22.8,0,0,1,1.17,7.5,91.55,91.55,0,0,0,3.5-9.84c.78-2.65,1.18-4.47,1.66-6.5.81-3.4,2.09-8.32,4-14.5.21,1.28.46,3,.67,5a99.41,99.41,0,0,1,.5,11.34,117.35,117.35,0,0,1-.67,11.83q2.51-4.08,5-8.17c-.18,1.42-.45,3.36-.83,5.67s-.62,3.68-1,5.33c-.68,2.85-.93,2.91-2,6.84a47.61,47.61,0,0,0-1.33,6,43.23,43.23,0,0,0-.34,4.33c-.07,1.93,0,3.58,0,4.83a33.38,33.38,0,0,0,3.84-6.16,43.67,43.67,0,0,0,2.33-6.34c.75-2.42.68-2.68,1.5-5.33a32.6,32.6,0,0,1,2-5.5,24.55,24.55,0,0,1,4-5.5,37.56,37.56,0,0,1,5-4.67,30.16,30.16,0,0,0-1,4c-.61,3.39-.27,5-.33,9.17,0,1.77-.24,4.35-.67,9.5-.33,4.05-.5,6.08-.67,7.17a38.33,38.33,0,0,1-4.33,12.66,17.4,17.4,0,0,0,3.67-3.5,20,20,0,0,0,2.83-5.16c1.06-2.78.62-3.3,1.67-6a25.11,25.11,0,0,1,2.5-4.67,55,55,0,0,1,4.66-6.33C134.88,232.77,137.8,229.16,141.67,223.84Z"/><rect class="cls-1" x="21.58" y="264.35" width="138.67" height="73.8"/><path class="cls-1" d="M507.91,326.93a18.68,18.68,0,0,1-1.55-2.34,19.28,19.28,0,0,1-1.06-2.16,19.61,19.61,0,0,1-.69-2q-4.8-15.87-9.59-31.75a17.24,17.24,0,0,1-.75-3.17,11.73,11.73,0,0,1-.08-3.41,8.68,8.68,0,0,1,.92-3.09,8.11,8.11,0,0,1,1.58-2.08c3.42-2.08,6.21-3.89,8.25-5.25a57.82,57.82,0,0,0,7.5-5.5,46.85,46.85,0,0,0,5.42-6.17,80.58,80.58,0,0,0,5-7.16l-19.73.55a2.7,2.7,0,0,1-1.61-.55,2.49,2.49,0,0,1-.77-1,2.63,2.63,0,0,1-.12-1.45,3.6,3.6,0,0,1,.39-1.16c1.17-2.82,2.34-5.63,3.5-8.45a6.61,6.61,0,0,0,.56-3.83,6.52,6.52,0,0,0-1.28-3,6.1,6.1,0,0,0-1.39-1.27l-6.61-5.84a6.24,6.24,0,0,1-1.61-2.28,6.52,6.52,0,0,1-.44-2,7.06,7.06,0,0,1,.16-2.05q1.79-9.49,3.56-19a4,4,0,0,0-.45-2.78,3.76,3.76,0,0,0-1.72-1.55,4,4,0,0,0-2.55-.28l-17.23.39a2.34,2.34,0,0,0-2.61,1.94l-.84,3c-.19.66-.38,1.32-.56,2a20.48,20.48,0,0,1,2.78,2.32l-4.1,2.3h0L466.36,211a2.15,2.15,0,0,0-1,1.17,1.63,1.63,0,0,0,.08,1.42c.26.4.74.51,1.33.66a5.38,5.38,0,0,0,.75.13l11.94.53.76,0a17.46,17.46,0,0,1,.32,2.41l-.41.1-8.27,2a2.63,2.63,0,0,0-1.13.38,1.93,1.93,0,0,0-.71.66,1.17,1.17,0,0,0-.21.84c.07.27.29.43.63.66a3.81,3.81,0,0,0,1.13.55l7.49,4.23a18.41,18.41,0,0,1-1.53,3l-7.38-1.82a2.12,2.12,0,0,0-1.5-.08,1.24,1.24,0,0,0-.63.41,1.55,1.55,0,0,0-.21.92,1.63,1.63,0,0,0,.13.75,1.46,1.46,0,0,0,.37.5l4.1,4.95a20.62,20.62,0,0,1-25.7-.71l2.19-3.82a3.2,3.2,0,0,0,.67-.67,2.64,2.64,0,0,0,.41-.92,1.39,1.39,0,0,0,0-1.08,1.22,1.22,0,0,0-.67-.5,2.16,2.16,0,0,0-1-.12,2.81,2.81,0,0,0-1.37.5l-4.54,1.52a19.59,19.59,0,0,1-1.3-2.54l4.46-3.73a2.4,2.4,0,0,0,.84-.59,2.32,2.32,0,0,0,.54-1.12,1.6,1.6,0,0,0,0-.92,1.58,1.58,0,0,0-1-.79,2.49,2.49,0,0,0-1.29-.13l-5.25-.36c0-.16,0-.32,0-.48a19.52,19.52,0,0,1,.18-2.67l7.54-2.32a2.48,2.48,0,0,0,1.29-.54,1.56,1.56,0,0,0,.37-2.37,3.37,3.37,0,0,0-1.3-1.21c-.58-.32-1.89-1.15-3.77-2.37l-.57-.37-5.83-3.82a1.48,1.48,0,0,0-.75-.19,1.64,1.64,0,0,0-.78.22,2,2,0,0,0-.61.44,2.15,2.15,0,0,0-.44.92,2.93,2.93,0,0,0-.11,1V233.4a11.24,11.24,0,0,0,1,4.5,12.4,12.4,0,0,0,1.62,2.58,16.07,16.07,0,0,0,2.35,2.45c.59.63,1.41,1.53,2.33,2.66a31.43,31.43,0,0,1,3.67,5.12,26.71,26.71,0,0,1,2.11,5.33,31.91,31.91,0,0,1,1.22,5.11,30.28,30.28,0,0,1,.34,4.89,29.69,29.69,0,0,1-.45,4.55q-5.55,22.79-11.11,45.56a34.67,34.67,0,0,1-2.11,6.11,36.26,36.26,0,0,1-4.78,7.67,49.43,49.43,0,0,1-6,6c-.89.8-1.73,1.55-2.53,2.22h95.85l-8.82-9.61C508.9,328.12,508.42,327.58,507.91,326.93Zm-27.3-86.86a8.33,8.33,0,1,1,8.33,8.33A8.33,8.33,0,0,1,480.61,240.07Z"/></g><g id="scale"><path class="cls-2" d="M268.34,134.77l-37.12,64.29a5.26,5.26,0,0,0,4.55,7.88H310a5.26,5.26,0,0,0,4.55-7.88l-37.12-64.29A5.25,5.25,0,0,0,268.34,134.77Z"/></g><g id="text"><text class="cls-3" transform="translate(411.96 356.03)"><tspan class="cls-4">T</tspan><tspan x="5.92" y="0">op-Down Regulation</tspan></text><text class="cls-3" transform="translate(29.14 356.03)">Bottom-Up Regulation</text></g></svg>